<svg width="12" height="7" viewBox="0 0 12 7" fill="none" xmlns="http://www.w3.org/2000/svg">
<path d="M2.20711 0.792893C1.81658 0.402369 1.18342 0.402369 0.792893 0.792893C0.402369 1.18342 0.402369 1.81658 0.792893 2.20711L2.20711 0.792893ZM6 6L5.29289 6.70711C5.68342 7.09763 6.31658 7.09763 6.70711 6.70711L6 6ZM11.2071 2.20711C11.5976 1.81658 11.5976 1.18342 11.2071 0.792893C10.8166 0.402369 10.1834 0.402369 9.79289 0.792893L11.2071 2.20711ZM0.792893 2.20711L5.29289 6.70711L6.70711 5.29289L2.20711 0.792893L0.792893 2.20711ZM6.70711 6.70711L11.2071 2.20711L9.79289 0.792893L5.29289 5.29289L6.70711 6.70711Z" fill="black"/>
</svg>
