<svg width="13" height="10" viewBox="0 0 13 10" fill="none" xmlns="http://www.w3.org/2000/svg">
<path d="M1.6585 4.74742C1.24287 4.38374 0.611105 4.42586 0.247423 4.8415C-0.116259 5.25713 -0.0741412 5.88889 0.341495 6.25258L1.6585 4.74742ZM5 9L4.3415 9.75258C4.75713 10.1163 5.38889 10.0741 5.75258 9.6585L5 9ZM12.7526 1.6585C13.1163 1.24287 13.0741 0.611105 12.6585 0.247423C12.2429 -0.116259 11.6111 -0.0741412 11.2474 0.341495L12.7526 1.6585ZM0.341495 6.25258L4.3415 9.75258L5.6585 8.24742L1.6585 4.74742L0.341495 6.25258ZM5.75258 9.6585L12.7526 1.6585L11.2474 0.341495L4.24742 8.3415L5.75258 9.6585Z" fill="black"/>
</svg>
