<svg width="18" height="18" viewBox="0 0 18 18" fill="none" xmlns="http://www.w3.org/2000/svg">
<path fill-rule="evenodd" clip-rule="evenodd" d="M11.1009 12.2911C9.93347 13.2156 8.45949 13.7673 6.85714 13.7673C3.07005 13.7673 0 10.6854 0 6.88365C0 3.08192 3.07005 0 6.85714 0C10.6442 0 13.7143 3.08192 13.7143 6.88365C13.7143 8.45657 13.1888 9.90627 12.3044 11.0655L17.749 16.5311C18.0837 16.8671 18.0837 17.4119 17.749 17.748C17.4142 18.084 16.8715 18.084 16.5368 17.748L11.1009 12.2911ZM12 6.88365C12 9.73496 9.69746 12.0464 6.85714 12.0464C4.01682 12.0464 1.71429 9.73496 1.71429 6.88365C1.71429 4.03235 4.01682 1.72091 6.85714 1.72091C9.69746 1.72091 12 4.03235 12 6.88365Z" fill="current"/>
</svg>
